<svg xmlns="http://www.w3.org/2000/svg" aria-hidden="true" style="position:absolute;width:0;height:0;overflow:hidden"><defs>

<symbol id="icon-linkedin" viewBox="0 0 40 40"><path d="M15 15h6.918v3.546h.099C22.98 16.82 25.336 15 28.847 15c7.303 0 8.653 4.546 8.653 10.458V37.5h-7.211V26.825c0-2.546-.052-5.821-3.751-5.821-3.756 0-4.329 2.773-4.329 5.636V37.5H15V15zM2.5 15H10v22.5H2.5V15zM10 8.75a3.75 3.75 0 1 1-7.5 0 3.75 3.75 0 0 1 7.5 0z"/></symbol>

<symbol id="icon-twitter" viewBox="0 0 40 40"><path d="M40 8.844a16.188 16.188 0 0 1-4.711 1.289 8.254 8.254 0 0 0 3.609-4.539 16.489 16.489 0 0 1-5.211 1.992A8.206 8.206 0 0 0 27.695 5a8.202 8.202 0 0 0-8.203 8.203c0 .641.07 1.266.211 1.867-6.82-.344-12.867-3.609-16.914-8.578a8.206 8.206 0 0 0-1.109 4.125 8.194 8.194 0 0 0 3.648 6.828 8.22 8.22 0 0 1-3.719-1.023v.102a8.207 8.207 0 0 0 6.586 8.047 8.202 8.202 0 0 1-3.711.141c1.047 3.258 4.078 5.633 7.664 5.703a16.461 16.461 0 0 1-10.195 3.516c-.664 0-1.313-.039-1.961-.117a23.213 23.213 0 0 0 12.586 3.688c15.094 0 23.352-12.508 23.352-23.352 0-.359-.008-.711-.023-1.063a16.519 16.519 0 0 0 4.094-4.242z"/></symbol>

<symbol id="icon-facebook" viewBox="0 0 40 40"><path d="M23.75 7.5H30V0h-6.25C18.925 0 15 3.925 15 8.75v3.75h-5V20h5v20h7.5V20h6.25L30 12.5h-7.5V8.75c0-.678.572-1.25 1.25-1.25z"/></symbol>

<symbol id="icon-instagram" viewBox="0 0 40 40"><path d="M20 3.602c5.344 0 5.977.023 8.078.117 1.953.086 3.008.414 3.711.688a6.18 6.18 0 0 1 2.297 1.492c.703.703 1.133 1.367 1.5 2.297.273.703.602 1.766.688 3.711.094 2.109.117 2.742.117 8.078s-.023 5.977-.117 8.078c-.086 1.953-.414 3.008-.688 3.711a6.18 6.18 0 0 1-1.492 2.297c-.703.703-1.367 1.133-2.297 1.5-.703.273-1.766.602-3.711.688-2.109.094-2.742.117-8.078.117s-5.977-.023-8.078-.117c-1.953-.086-3.008-.414-3.711-.688a6.18 6.18 0 0 1-2.297-1.492c-.703-.703-1.133-1.367-1.5-2.297-.273-.703-.602-1.766-.688-3.711-.094-2.109-.117-2.742-.117-8.078s.023-5.977.117-8.078c.086-1.953.414-3.008.688-3.711a6.18 6.18 0 0 1 1.492-2.297c.703-.703 1.367-1.133 2.297-1.5.703-.273 1.766-.602 3.711-.687 2.102-.094 2.734-.117 8.078-.117zM20 0c-5.43 0-6.109.023-8.242.117-2.125.094-3.586.438-4.852.93-1.32.516-2.438 1.195-3.547 2.313-1.117 1.109-1.797 2.227-2.313 3.539C.554 8.172.21 9.626.116 11.751c-.094 2.141-.117 2.82-.117 8.25s.023 6.109.117 8.242c.094 2.125.438 3.586.93 4.852.516 1.32 1.195 2.438 2.313 3.547a9.785 9.785 0 0 0 3.539 2.305c1.273.492 2.727.836 4.852.93 2.133.094 2.813.117 8.242.117s6.109-.023 8.242-.117c2.125-.094 3.586-.438 4.852-.93 1.313-.508 2.43-1.195 3.539-2.305s1.797-2.227 2.305-3.539c.492-1.273.836-2.727.93-4.852.094-2.133.117-2.813.117-8.242s-.023-6.109-.117-8.242c-.094-2.125-.438-3.586-.93-4.852a9.374 9.374 0 0 0-2.289-3.555 9.785 9.785 0 0 0-3.539-2.305C31.829.563 30.375.219 28.25.125 26.109.023 25.43 0 20 0z"/><path d="M20 9.727C14.328 9.727 9.727 14.329 9.727 20S14.329 30.273 20 30.273 30.273 25.671 30.273 20c0-5.672-4.602-10.273-10.273-10.273zm0 16.937a6.665 6.665 0 1 1 .001-13.33A6.665 6.665 0 0 1 20 26.665zM33.078 9.32a2.398 2.398 0 1 1-4.796 0 2.398 2.398 0 0 1 4.796 0z"/>
</symbol></defs></svg>