<svg aria-hidden="true" style="position: absolute; width: 0; height: 0; overflow: hidden;" version="1.1" xmlns="http://www.w3.org/2000/svg" xmlns:xlink="http://www.w3.org/1999/xlink">
<defs>

<symbol id="icon-instagram" viewBox="0 0 40 40">
<path d="M20 3.602c5.344 0 5.977 0.023 8.078 0.117 1.953 0.086 3.008 0.414 3.711 0.688 0.93 0.359 1.602 0.797 2.297 1.492 0.703 0.703 1.133 1.367 1.5 2.297 0.273 0.703 0.602 1.766 0.688 3.711 0.094 2.109 0.117 2.742 0.117 8.078s-0.023 5.977-0.117 8.078c-0.086 1.953-0.414 3.008-0.688 3.711-0.359 0.93-0.797 1.602-1.492 2.297-0.703 0.703-1.367 1.133-2.297 1.5-0.703 0.273-1.766 0.602-3.711 0.688-2.109 0.094-2.742 0.117-8.078 0.117s-5.977-0.023-8.078-0.117c-1.953-0.086-3.008-0.414-3.711-0.688-0.93-0.359-1.602-0.797-2.297-1.492-0.703-0.703-1.133-1.367-1.5-2.297-0.273-0.703-0.602-1.766-0.688-3.711-0.094-2.109-0.117-2.742-0.117-8.078s0.023-5.977 0.117-8.078c0.086-1.953 0.414-3.008 0.688-3.711 0.359-0.93 0.797-1.602 1.492-2.297 0.703-0.703 1.367-1.133 2.297-1.5 0.703-0.273 1.766-0.602 3.711-0.687 2.102-0.094 2.734-0.117 8.078-0.117zM20 0c-5.43 0-6.109 0.023-8.242 0.117-2.125 0.094-3.586 0.438-4.852 0.93-1.32 0.516-2.438 1.195-3.547 2.313-1.117 1.109-1.797 2.227-2.313 3.539-0.492 1.273-0.836 2.727-0.93 4.852-0.094 2.141-0.117 2.82-0.117 8.25s0.023 6.109 0.117 8.242c0.094 2.125 0.438 3.586 0.93 4.852 0.516 1.32 1.195 2.438 2.313 3.547 1.109 1.109 2.227 1.797 3.539 2.305 1.273 0.492 2.727 0.836 4.852 0.93 2.133 0.094 2.813 0.117 8.242 0.117s6.109-0.023 8.242-0.117c2.125-0.094 3.586-0.438 4.852-0.93 1.313-0.508 2.43-1.195 3.539-2.305s1.797-2.227 2.305-3.539c0.492-1.273 0.836-2.727 0.93-4.852 0.094-2.133 0.117-2.813 0.117-8.242s-0.023-6.109-0.117-8.242c-0.094-2.125-0.438-3.586-0.93-4.852-0.492-1.328-1.172-2.445-2.289-3.555-1.109-1.109-2.227-1.797-3.539-2.305-1.273-0.492-2.727-0.836-4.852-0.93-2.141-0.102-2.82-0.125-8.25-0.125v0z"></path>
<path d="M20 9.727c-5.672 0-10.273 4.602-10.273 10.273s4.602 10.273 10.273 10.273 10.273-4.602 10.273-10.273c0-5.672-4.602-10.273-10.273-10.273zM20 26.664c-3.68 0-6.664-2.984-6.664-6.664s2.984-6.664 6.664-6.664c3.68 0 6.664 2.984 6.664 6.664s-2.984 6.664-6.664 6.664z"></path>
<path d="M33.078 9.32c0 1.325-1.074 2.398-2.398 2.398s-2.398-1.074-2.398-2.398c0-1.325 1.074-2.398 2.398-2.398s2.398 1.074 2.398 2.398z"></path>
</symbol>

<symbol id="icon-twitter-with-circle" viewBox="0 0 40 40">
<path d="M20 0.8c-10.604 0-19.2 8.596-19.2 19.2s8.596 19.2 19.2 19.2 19.2-8.596 19.2-19.2-8.596-19.2-19.2-19.2zM27.81 16.528c0.008 0.164 0.010 0.328 0.010 0.488 0 5-3.802 10.762-10.758 10.762-2.136 0-4.124-0.624-5.796-1.7 0.294 0.036 0.596 0.050 0.902 0.050 1.772 0 3.402-0.602 4.696-1.618-1.654-0.032-3.050-1.124-3.532-2.624 0.23 0.042 0.466 0.066 0.71 0.066 0.344 0 0.68-0.046 0.996-0.132-1.73-0.348-3.034-1.876-3.034-3.708v-0.046c0.51 0.282 1.094 0.454 1.714 0.474-1.016-0.68-1.682-1.836-1.682-3.15 0-0.692 0.186-1.344 0.512-1.902 1.866 2.288 4.65 3.792 7.794 3.954-0.066-0.278-0.098-0.566-0.098-0.864 0-2.086 1.692-3.782 3.782-3.782 1.086 0 2.070 0.46 2.76 1.196 0.862-0.172 1.67-0.484 2.4-0.918-0.282 0.882-0.88 1.624-1.662 2.094 0.766-0.094 1.494-0.296 2.172-0.598-0.506 0.758-1.148 1.426-1.886 1.958z"></path>
</symbol>

<symbol id="icon-facebook-with-circle" viewBox="0 0 40 40">
<path d="M20 0.8c-10.604 0-19.2 8.596-19.2 19.2s8.596 19.2 19.2 19.2 19.2-8.596 19.2-19.2-8.596-19.2-19.2-19.2zM24.548 14.068h-2.886c-0.342 0-0.722 0.45-0.722 1.048v2.084h3.61l-0.546 2.972h-3.064v8.922h-3.406v-8.922h-3.090v-2.972h3.090v-1.748c0-2.508 1.74-4.546 4.128-4.546h2.886v3.162z"></path>
</symbol>

<symbol id="icon-linkedin-with-circle" viewBox="0 0 40 40">
<path d="M20 0.8c-10.604 0-19.2 8.596-19.2 19.2s8.596 19.2 19.2 19.2 19.2-8.596 19.2-19.2-8.596-19.2-19.2-19.2zM15.3 27.958h-3.888v-12.512h3.888v12.512zM13.332 13.91c-1.228 0-2.022-0.87-2.022-1.946 0-1.098 0.818-1.942 2.072-1.942s2.022 0.844 2.046 1.942c0 1.076-0.792 1.946-2.096 1.946zM29.5 27.958h-3.888v-6.934c0-1.614-0.564-2.71-1.97-2.71-1.074 0-1.712 0.742-1.994 1.456-0.104 0.254-0.13 0.614-0.13 0.972v7.214h-3.89v-8.52c0-1.562-0.050-2.868-0.102-3.992h3.378l0.178 1.738h0.078c0.512-0.816 1.766-2.020 3.864-2.020 2.558 0 4.476 1.714 4.476 5.398v7.398z"></path>
</symbol>
</defs>
</svg>
